<svg width="55" height="52" viewBox="0 0 55 52" fill="none" xmlns="http://www.w3.org/2000/svg">
<path d="M27.5 52C31.297 52 34.375 49.0899 34.375 45.5H20.625C20.625 49.0899 23.703 52 27.5 52Z" fill="black"/>
<path d="M27.5 6.23431L24.7596 6.75757C18.4784 7.95694 13.7501 13.21 13.7501 19.5C13.7501 21.5404 13.2882 26.6411 12.1727 31.662C11.619 34.1546 10.8781 36.7498 9.89345 39H45.1066C44.1219 36.7498 43.3811 34.1545 42.8274 31.662C41.7119 26.641 41.2501 21.5404 41.2501 19.5C41.2501 13.21 36.5217 7.95687 30.2404 6.75754L27.5 6.23431ZM48.8789 39C49.6463 40.454 50.5363 41.6032 51.5625 42.25H3.4375C4.46369 41.6032 5.35372 40.454 6.12116 39C9.20983 33.148 10.3126 22.3573 10.3126 19.5C10.3126 11.6329 16.2257 5.07146 24.0791 3.57189C24.0681 3.466 24.0625 3.35862 24.0625 3.25C24.0625 1.45507 25.6015 0 27.5 0C29.3985 0 30.9375 1.45507 30.9375 3.25C30.9375 3.35861 30.9319 3.46598 30.9209 3.57186C38.7744 5.07137 44.6876 11.6328 44.6876 19.5C44.6876 22.3573 45.7902 33.148 48.8789 39Z" fill="black"/>
</svg>
