<svg width="55" height="51" viewBox="0 0 55 51" fill="none" xmlns="http://www.w3.org/2000/svg">
<path d="M29.9307 4.78138C28.5883 3.53658 26.4118 3.53658 25.0693 4.78138L2.22216 25.9669C1.55095 26.5893 1.55095 27.5984 2.22216 28.2208C2.89337 28.8432 3.98163 28.8432 4.65284 28.2208L6.875 26.1603V43.0314C6.875 45.672 9.18353 47.8126 12.0312 47.8126H42.9688C45.8165 47.8126 48.125 45.672 48.125 43.0314V26.1603L50.3472 28.2208C51.0184 28.8432 52.1066 28.8432 52.7778 28.2208C53.4491 27.5984 53.4491 26.5893 52.7778 25.9669L44.6875 18.465V7.96888C44.6875 7.08867 43.918 6.37513 42.9688 6.37513H39.5312C38.582 6.37513 37.8125 7.08867 37.8125 7.96888V12.09L29.9307 4.78138ZM44.6875 22.9728V43.0314C44.6875 43.9116 43.918 44.6251 42.9688 44.6251H12.0312C11.082 44.6251 10.3125 43.9116 10.3125 43.0314V22.9728L27.5 7.03528L44.6875 22.9728Z" fill="black"/>
</svg>
