<svg width="42" height="51" viewBox="0 0 42 51" fill="none" xmlns="http://www.w3.org/2000/svg">
<path d="M21.555 6.52452C21.2032 6.32516 20.7968 6.32516 20.445 6.52452L0.757466 17.6808C0.283274 17.9495 -0.014162 18.5345 0.000519735 19.1697C0.0152014 19.8049 0.339195 20.3688 0.825053 20.6048L20.5126 30.1673C20.8255 30.3192 21.1745 30.3192 21.4875 30.1673L36.75 22.754V41.4375C35.3003 41.4375 34.125 42.8646 34.125 44.625V51H42V44.625C42 42.8646 40.8248 41.4375 39.375 41.4375V21.479L41.175 20.6048C41.6608 20.3688 41.9848 19.8049 41.9995 19.1697C42.0142 18.5345 41.7167 17.9495 41.2425 17.6808L21.555 6.52452ZM21 26.971L4.6148 19.0125L21 9.7275L37.3852 19.0125L21 26.971Z" fill="black"/>
<path d="M10.9609 28.789C10.6194 28.6335 10.2401 28.6575 9.91381 28.8553C9.58754 29.0531 9.34373 29.4067 9.24084 29.8315L7.92834 35.2503C7.73733 36.0389 8.07155 36.8745 8.70005 37.1797L20.5126 42.9173C20.8255 43.0692 21.1745 43.0692 21.4875 42.9173L33.3 37.1797C33.9285 36.8745 34.2627 36.0389 34.0717 35.2503L32.7592 29.8315C32.6563 29.4067 32.4125 29.0531 32.0862 28.8553C31.7599 28.6575 31.3806 28.6335 31.0392 28.789L21 33.3604L10.9609 28.789ZM10.7836 34.7587L11.3609 32.3754L20.5392 36.5548C20.8363 36.6901 21.1637 36.6901 21.4609 36.5548L30.6391 32.3754L31.2164 34.7587L21 39.721L10.7836 34.7587Z" fill="black"/>
</svg>
