<svg width="55" height="55" viewBox="0 0 55 55" fill="none" xmlns="http://www.w3.org/2000/svg">
<path d="M27.5 17.1875C21.8046 17.1875 17.1875 21.8046 17.1875 27.5C17.1875 33.1954 21.8046 37.8125 27.5 37.8125C33.1954 37.8125 37.8125 33.1954 37.8125 27.5C37.8125 21.8046 33.1954 17.1875 27.5 17.1875ZM20.625 27.5C20.625 23.703 23.703 20.625 27.5 20.625C31.297 20.625 34.375 23.703 34.375 27.5C34.375 31.297 31.297 34.375 27.5 34.375C23.703 34.375 20.625 31.297 20.625 27.5Z" fill="black"/>
<path d="M18.9062 41.25C17.957 41.25 17.1875 42.0195 17.1875 42.9688C17.1875 43.918 17.957 44.6875 18.9062 44.6875H36.0938C37.043 44.6875 37.8125 43.918 37.8125 42.9688C37.8125 42.0195 37.043 41.25 36.0938 41.25H18.9062Z" fill="black"/>
<path d="M11.1089 6.10516C8.65712 6.55094 6.875 8.6863 6.875 11.1782V48.8217C6.875 50.35 7.53254 51.701 8.56221 52.6365C9.82263 54.0846 11.6794 55 13.75 55H41.25C45.047 55 48.125 51.922 48.125 48.125V13.75C48.125 11.2053 46.7425 8.98337 44.6875 7.7946V6.17824C44.6875 2.96124 41.774 0.52969 38.6089 1.10517L11.1089 6.10516ZM13.75 10.3125H41.25C43.1485 10.3125 44.6875 11.8515 44.6875 13.75V48.125C44.6875 50.0235 43.1485 51.5625 41.25 51.5625H13.75C11.8515 51.5625 10.3125 50.0235 10.3125 48.125V13.75C10.3125 11.8515 11.8515 10.3125 13.75 10.3125Z" fill="black"/>
</svg>
