<svg width="55" height="55" viewBox="0 0 55 55" fill="none" xmlns="http://www.w3.org/2000/svg">
<path d="M27.5 20.625C23.703 20.625 20.625 23.703 20.625 27.5C20.625 31.2969 23.703 34.375 27.5 34.375C31.297 34.375 34.375 31.2969 34.375 27.5C34.375 23.703 31.297 20.625 27.5 20.625Z" fill="black"/>
<path d="M6.875 11.1782C6.875 8.6863 8.65712 6.55094 11.1089 6.10516L38.6089 1.10517C41.774 0.52969 44.6875 2.96124 44.6875 6.17824V7.79471C46.7424 8.98343 48.125 11.2052 48.125 13.75V48.125C48.125 51.9219 45.047 55 41.25 55H13.75C11.6795 55 9.82281 54.0847 8.5624 52.6367C7.53262 51.7011 6.875 50.35 6.875 48.8217V11.1782ZM17.1875 27.5C17.1875 33.1954 21.8046 37.8125 27.5 37.8125C33.1954 37.8125 37.8125 33.1954 37.8125 27.5C37.8125 21.8045 33.1954 17.1875 27.5 17.1875C21.8046 17.1875 17.1875 21.8045 17.1875 27.5ZM17.1875 42.9687C17.1875 43.9179 17.957 44.6875 18.9062 44.6875H36.0938C37.043 44.6875 37.8125 43.9179 37.8125 42.9687C37.8125 42.0195 37.043 41.25 36.0938 41.25H18.9062C17.957 41.25 17.1875 42.0195 17.1875 42.9687Z" fill="black"/>
</svg>
