<svg width="53" height="51" viewBox="0 0 53 51" fill="none" xmlns="http://www.w3.org/2000/svg">
<path d="M10.3087 11.6193C10.0244 8.81002 12.3188 6.375 15.2541 6.375L23.1877 6.37506C24.1024 6.37506 24.8439 7.08861 24.8439 7.96881V9.18654C24.8439 11.4043 23.1967 12.9547 21.9561 13.8686C21.7411 14.0271 21.6284 14.1596 21.5749 14.2447C21.5494 14.2854 21.5391 14.3123 21.5351 14.3253C21.5314 14.3374 21.5314 14.3424 21.5314 14.3438C21.5314 14.3455 21.5315 14.348 21.5325 14.3525C21.5335 14.3572 21.536 14.367 21.5426 14.3826C21.556 14.414 21.588 14.473 21.6603 14.5552C21.8114 14.7271 22.0949 14.9502 22.5563 15.1722C23.48 15.6167 24.8721 15.9376 26.5002 15.9376C28.1282 15.9376 29.5203 15.6167 30.444 15.1722C30.9055 14.9502 31.189 14.7271 31.34 14.5552C31.4123 14.473 31.4443 14.414 31.4577 14.3826C31.4643 14.367 31.4669 14.3572 31.4679 14.3525C31.4688 14.348 31.4689 14.3455 31.4689 14.3438C31.4689 14.3424 31.469 14.3374 31.4653 14.3253C31.4612 14.3123 31.451 14.2854 31.4254 14.2447C31.3719 14.1596 31.2592 14.0271 31.0442 13.8686C29.8036 12.9547 28.1564 11.4043 28.1564 9.18654V7.96881C28.1564 7.0886 28.8979 6.37506 29.8127 6.37506H37.746C40.6812 6.37506 42.9756 8.81007 42.6913 11.6194L41.8848 20.7187H42.6717C43.3169 20.7187 44.0637 20.25 44.9072 19.1898C45.6026 18.3157 46.6571 17.5312 48.0312 17.5312C49.9113 17.5312 51.1675 18.9564 51.8549 20.2794C52.5919 21.6978 53 23.5458 53 25.5C53 27.4542 52.5919 29.3021 51.8549 30.7205C51.1675 32.0436 49.9113 33.4687 48.0312 33.4687C46.6571 33.4687 45.6026 32.6842 44.9072 31.8102C44.0637 30.75 43.3169 30.2812 42.6717 30.2812H41.8848L42.6913 39.3807C42.9756 42.19 40.6812 44.625 37.746 44.625H29.8127C28.8979 44.625 28.1564 43.9115 28.1564 43.0312V41.8135C28.1564 39.5957 29.8036 38.0453 31.0442 37.1314C31.2592 36.973 31.3719 36.8404 31.4254 36.7553C31.451 36.7146 31.4612 36.6877 31.4653 36.6747C31.469 36.6627 31.4689 36.6577 31.4689 36.6562C31.4689 36.6545 31.4688 36.6521 31.4679 36.6476C31.4669 36.6429 31.4643 36.633 31.4577 36.6175C31.4443 36.586 31.4123 36.527 31.34 36.4448C31.189 36.273 30.9055 36.0498 30.444 35.8278C29.5203 35.3834 28.1282 35.0625 26.5002 35.0625C24.8721 35.0625 23.48 35.3834 22.5563 35.8278C22.0949 36.0498 21.8114 36.273 21.6603 36.4448C21.588 36.527 21.556 36.586 21.5426 36.6175C21.536 36.633 21.5335 36.6429 21.5325 36.6476C21.5315 36.6521 21.5314 36.6545 21.5314 36.6562C21.5314 36.6578 21.5314 36.6628 21.5351 36.6747C21.5391 36.6877 21.5494 36.7146 21.5749 36.7553C21.6284 36.8404 21.7411 36.973 21.9561 37.1314C23.1967 38.0453 24.8439 39.5957 24.8439 41.8135V43.0312C24.8439 43.4539 24.6694 43.8593 24.3588 44.1582C24.0482 44.4571 23.6269 44.625 23.1877 44.625L15.254 44.6249C12.3189 44.6249 10.0244 42.19 10.3086 39.3807L11.1152 30.2812H10.3283C9.68308 30.2812 8.93627 30.7499 8.09278 31.8101C7.39736 32.6842 6.34286 33.4687 4.96875 33.4687C3.08872 33.4687 1.83254 32.0435 1.14506 30.7205C0.408052 29.3021 0 27.4541 0 25.4999C0 23.5457 0.408052 21.6978 1.14506 20.2794C1.83254 18.9563 3.08872 17.5312 4.96875 17.5312C6.34286 17.5312 7.39736 18.3156 8.09278 19.1897C8.93627 20.2499 9.68308 20.7187 10.3283 20.7187H11.1152L10.3087 11.6193ZM15.254 9.5625C14.2742 9.5625 13.5085 10.3766 13.606 11.3148L13.6084 11.338L14.569 22.177C14.6084 22.6216 14.4523 23.0617 14.1387 23.3904C13.825 23.7191 13.3825 23.9062 12.9188 23.9062H10.3283C8.02353 23.9062 6.41232 22.3211 5.46258 21.1274C5.29795 20.9204 5.16017 20.812 5.07173 20.7605C5.02943 20.7359 5.00148 20.7261 4.98796 20.7222C4.97563 20.7187 4.97042 20.7187 4.96882 20.7187C4.96707 20.7187 4.96443 20.7188 4.95974 20.7197C4.95485 20.7206 4.94462 20.7231 4.9285 20.7294C4.89579 20.7423 4.8345 20.7731 4.74905 20.8427C4.57047 20.988 4.33856 21.2609 4.10785 21.7049C3.64598 22.5938 3.3125 23.9333 3.3125 25.4999C3.3125 27.0666 3.64598 28.4061 4.10785 29.295C4.33856 29.739 4.57047 30.0118 4.74905 30.1572C4.8345 30.2267 4.89579 30.2575 4.9285 30.2704C4.94462 30.2768 4.95485 30.2792 4.95974 30.2801C4.96443 30.2811 4.96699 30.2812 4.96875 30.2812C4.97034 30.2812 4.97563 30.2812 4.98796 30.2776C5.00148 30.2738 5.02943 30.2639 5.07173 30.2393C5.16017 30.1879 5.29795 30.0794 5.46258 29.8725C6.41232 28.6787 8.02353 27.0937 10.3283 27.0937H12.9188C13.3825 27.0937 13.825 27.2808 14.1387 27.6094C14.4523 27.9381 14.6084 28.3782 14.569 28.8229L13.6062 39.6851C13.5087 40.6233 14.2742 41.4374 15.254 41.4374L21.4744 41.4375C21.317 40.9076 20.8285 40.3151 19.9425 39.6624C19.0342 38.9932 18.2189 37.9785 18.2189 36.6562C18.2189 34.8471 19.6999 33.6384 21.0749 32.9768C22.5489 32.2676 24.4693 31.875 26.5002 31.875C28.531 31.875 30.4514 32.2676 31.9254 32.9768C33.3004 33.6384 34.7814 34.8471 34.7814 36.6562C34.7814 37.9785 33.9662 38.9932 33.0578 39.6624C32.1718 40.3151 31.6833 40.9076 31.5259 41.4375H37.746C38.7258 41.4375 39.4915 40.6234 39.394 39.6852L39.3916 39.662L38.431 28.8229C38.3916 28.3783 38.5477 27.9381 38.8613 27.6095C39.175 27.2808 39.6175 27.0937 40.0812 27.0937H42.6717C44.9765 27.0937 46.5877 28.6788 47.5374 29.8725C47.7021 30.0795 47.8398 30.1879 47.9283 30.2393C47.9706 30.264 47.9985 30.2738 48.012 30.2777C48.0244 30.2812 48.0296 30.2812 48.0312 30.2812C48.0329 30.2812 48.0356 30.2811 48.0403 30.2802C48.0452 30.2792 48.0554 30.2768 48.0715 30.2705C48.1042 30.2576 48.1655 30.2268 48.2509 30.1572C48.4295 30.0119 48.6614 29.739 48.8921 29.295C49.354 28.4061 49.6875 27.0666 49.6875 25.5C49.6875 23.9333 49.354 22.5938 48.8921 21.7049C48.6614 21.2609 48.4295 20.9881 48.2509 20.8427C48.1655 20.7732 48.1042 20.7424 48.0715 20.7295C48.0554 20.7231 48.0452 20.7207 48.0403 20.7197C48.0356 20.7188 48.033 20.7187 48.0312 20.7187C48.0297 20.7187 48.0246 20.7187 48.012 20.7222C47.9985 20.7261 47.9706 20.736 47.9283 20.7606C47.8398 20.812 47.7021 20.9205 47.5374 21.1274C46.5877 22.3212 44.9765 23.9062 42.6717 23.9062H40.0812C39.6175 23.9062 39.175 23.7191 38.8613 23.3905C38.5477 23.0618 38.3916 22.6216 38.431 22.177L39.3938 11.3149C39.4913 10.3767 38.7258 9.56256 37.746 9.56256H31.5259C31.6833 10.0925 32.1718 10.685 33.0578 11.3377C33.9662 12.0069 34.7814 13.0216 34.7814 14.3438C34.7814 16.1529 33.3004 17.3617 31.9254 18.0232C30.4514 18.7324 28.531 19.1251 26.5002 19.1251C24.4693 19.1251 22.5489 18.7324 21.0749 18.0232C19.6999 17.3617 18.2189 16.1529 18.2189 14.3438C18.2189 13.0216 19.0342 12.0069 19.9425 11.3377C20.8285 10.685 21.317 10.0925 21.4744 9.56254L15.254 9.5625Z" fill="black"/>
</svg>
