<svg width="53" height="51" viewBox="0 0 53 51" fill="none" xmlns="http://www.w3.org/2000/svg">
<path d="M10.3085 11.6193C10.0242 8.81002 12.3187 6.375 15.2539 6.375L23.1876 6.37506C24.1023 6.37506 24.8438 7.08861 24.8438 7.96881V9.18654C24.8438 11.4043 23.1966 12.9547 21.956 13.8686C21.741 14.0271 21.6283 14.1596 21.5748 14.2447C21.5492 14.2854 21.539 14.3123 21.535 14.3253C21.5312 14.3374 21.5313 14.3438 21.5313 14.3438L21.5324 14.3525C21.5324 14.3525 21.5359 14.367 21.5425 14.3826C21.5559 14.414 21.5879 14.473 21.6602 14.5552C21.8112 14.7271 22.0947 14.9502 22.5562 15.1722C23.4799 15.6167 24.872 15.9376 26.5 15.9376C28.1281 15.9376 29.5202 15.6167 30.4439 15.1722C30.9053 14.9502 31.1889 14.7271 31.3399 14.5552C31.4122 14.473 31.4442 14.414 31.4576 14.3826C31.4642 14.367 31.4677 14.3525 31.4677 14.3525L31.4688 14.3438C31.4688 14.3438 31.4689 14.3374 31.4651 14.3253C31.4611 14.3123 31.4508 14.2854 31.4253 14.2447C31.3718 14.1596 31.2591 14.0271 31.0441 13.8686C29.8035 12.9547 28.1563 11.4043 28.1563 9.18654V7.96881C28.1563 7.0886 28.8978 6.37506 29.8125 6.37506H37.7458C40.681 6.37506 42.9755 8.81007 42.6912 11.6194L41.8846 20.7187H42.6716C43.3168 20.7187 44.0636 20.25 44.9071 19.1898C45.6025 18.3157 46.657 17.5312 48.0311 17.5312C49.9112 17.5312 51.1673 18.9564 51.8548 20.2794C52.5918 21.6978 52.9999 23.5458 52.9999 25.5C52.9999 27.4542 52.5918 29.3021 51.8548 30.7205C51.1673 32.0436 49.9112 33.4687 48.0311 33.4687C46.657 33.4687 45.6025 32.6842 44.9071 31.8102C44.0636 30.75 43.3168 30.2812 42.6716 30.2812H41.8846L42.6912 39.3807C42.9755 42.19 40.681 44.625 37.7458 44.625H29.8125C28.8978 44.625 28.1563 43.9115 28.1563 43.0312V41.8135C28.1563 39.5957 29.8035 38.0453 31.0441 37.1314C31.2591 36.973 31.3718 36.8404 31.4253 36.7553C31.4508 36.7146 31.4611 36.6877 31.4651 36.6747C31.4689 36.6627 31.4688 36.6562 31.4688 36.6562L31.4677 36.6476C31.4677 36.6476 31.4642 36.633 31.4576 36.6175C31.4442 36.586 31.4122 36.527 31.3399 36.4448C31.1889 36.273 30.9053 36.0498 30.4439 35.8278C29.5202 35.3834 28.1281 35.0625 26.5 35.0625C24.872 35.0625 23.4799 35.3834 22.5562 35.8278C22.0947 36.0498 21.8112 36.273 21.6602 36.4448C21.5879 36.527 21.5559 36.586 21.5425 36.6175C21.5359 36.633 21.5324 36.6476 21.5324 36.6476L21.5313 36.6562C21.5313 36.6562 21.5313 36.6628 21.535 36.6747C21.539 36.6877 21.5492 36.7146 21.5748 36.7553C21.6283 36.8404 21.741 36.973 21.956 37.1314C23.1966 38.0453 24.8438 39.5957 24.8438 41.8135V43.0312C24.8438 43.4539 24.6693 43.8593 24.3587 44.1582C24.0481 44.4571 23.6268 44.625 23.1875 44.625L15.2539 44.6249C12.3187 44.6249 10.0243 42.19 10.3085 39.3807L11.1151 30.2812H10.3282C9.68296 30.2812 8.93615 30.7499 8.09266 31.8101C7.39724 32.6842 6.34274 33.4687 4.96863 33.4687C3.0886 33.4687 1.83242 32.0435 1.14494 30.7205C0.40793 29.3021 -0.00012207 27.4541 -0.00012207 25.4999C-0.00012207 23.5457 0.40793 21.6978 1.14494 20.2794C1.83242 18.9563 3.0886 17.5312 4.96863 17.5312C6.34274 17.5312 7.39724 18.3156 8.09266 19.1897C8.93615 20.2499 9.68296 20.7187 10.3282 20.7187H11.1151L10.3085 11.6193Z" fill="black"/>
</svg>
