<svg width="67" height="62" viewBox="0 0 67 62" fill="none" xmlns="http://www.w3.org/2000/svg">
<path d="M25.8229 56.8334L24.7062 48.5667C24.1014 48.3514 23.5314 48.0931 22.9964 47.7917C22.4613 47.4903 21.9378 47.1674 21.426 46.8229L13.1208 50.0521L5.44375 37.7813L12.6323 32.7438C12.5858 32.4424 12.5625 32.1518 12.5625 31.8719V30.1281C12.5625 29.8483 12.5858 29.5577 12.6323 29.2563L5.44375 24.2188L13.1208 11.9479L21.426 15.1771C21.9378 14.8327 22.4729 14.5097 23.0312 14.2084C23.5896 13.907 24.1479 13.6486 24.7062 13.4334L25.8229 5.16669H41.1771L42.2938 13.4334C42.8986 13.6486 43.4686 13.907 44.0036 14.2084C44.5387 14.5097 45.0622 14.8327 45.574 15.1771L53.8792 11.9479L61.5563 24.2188L54.3677 29.2563C54.4142 29.5577 54.4375 29.8483 54.4375 30.1281V31.8719C54.4375 32.1518 54.391 32.4424 54.2979 32.7438L61.4865 37.7813L53.8094 50.0521L45.574 46.8229C45.0622 47.1674 44.5271 47.4903 43.9688 47.7917C43.4104 48.0931 42.8521 48.3514 42.2938 48.5667L41.1771 56.8334H25.8229ZM30.7083 51.6667H36.2219L37.199 44.8209C38.6413 44.4764 39.979 43.9705 41.212 43.3031C42.445 42.6358 43.5733 41.8285 44.5969 40.8813L51.5062 43.5292L54.2281 39.1375L48.226 34.9396C48.4587 34.3368 48.6215 33.7018 48.7146 33.0344C48.8076 32.367 48.8542 31.6889 48.8542 31C48.8542 30.3111 48.8076 29.633 48.7146 28.9656C48.6215 28.2983 48.4587 27.6632 48.226 27.0604L54.2281 22.8625L51.5062 18.4709L44.5969 21.1834C43.5733 20.1931 42.445 19.3643 41.212 18.6969C39.979 18.0295 38.6413 17.5236 37.199 17.1792L36.2917 10.3334H30.7781L29.801 17.1792C28.3587 17.5236 27.021 18.0295 25.788 18.6969C24.555 19.3643 23.4267 20.1715 22.4031 21.1188L15.4937 18.4709L12.7719 22.8625L18.774 26.9959C18.5413 27.6417 18.3785 28.2875 18.2854 28.9334C18.1924 29.5792 18.1458 30.2681 18.1458 31C18.1458 31.6889 18.1924 32.3563 18.2854 33.0021C18.3785 33.6479 18.5413 34.2938 18.774 34.9396L12.7719 39.1375L15.4937 43.5292L22.4031 40.8167C23.4267 41.807 24.555 42.6358 25.788 43.3031C27.021 43.9705 28.3587 44.4764 29.801 44.8209L30.7083 51.6667ZM33.6396 40.0417C36.3382 40.0417 38.6413 39.159 40.549 37.3938C42.4566 35.6285 43.4104 33.4972 43.4104 31C43.4104 28.5028 42.4566 26.3715 40.549 24.6063C38.6413 22.841 36.3382 21.9584 33.6396 21.9584C30.8944 21.9584 28.5797 22.841 26.6953 24.6063C24.8109 26.3715 23.8687 28.5028 23.8687 31C23.8687 33.4972 24.8109 35.6285 26.6953 37.3938C28.5797 39.159 30.8944 40.0417 33.6396 40.0417Z" fill="#1D1B20"/>
</svg>
